<svg width="2840" height="2046" viewBox="0 0 2840 2046" fill="none" xmlns="http://www.w3.org/2000/svg">
<path d="M1940 2046C1701.31 2046 1472.39 1951.18 1303.6 1782.4C1134.82 1613.61 1040 1384.69 1040 1146C1040 907.305 1134.82 678.387 1303.6 509.604C1472.39 340.821 1701.31 246 1940 246V1146L1940 2046Z" fill="#FFD600"/>
<path d="M500 0C632.608 1.58134e-06 759.785 52.6784 853.553 146.447C947.322 240.215 1000 367.392 1000 500C1000 632.608 947.322 759.785 853.554 853.553C759.785 947.321 632.609 1000 500 1000L500 500V0Z" fill="#FFD600"/>
</svg>
