<svg width="430" height="880" viewBox="0 0 430 880" fill="none" xmlns="http://www.w3.org/2000/svg">
<rect width="430" height="880" fill="#322153"/>
<path d="M212.833 533.31C134.553 533.31 71.0934 539.361 71.0934 546.824C71.0934 554.287 134.553 560.338 212.833 560.338C291.114 560.338 354.573 554.287 354.573 546.824C354.573 539.361 291.114 533.31 212.833 533.31Z" fill="#F0F0F5"/>
<path d="M336.238 494.425C336.238 494.425 316.128 548.62 313.974 548.62C311.819 548.62 268.727 561.491 306.792 545.232C306.792 545.232 311.101 486.295 317.565 483.585C324.029 480.876 336.238 494.425 336.238 494.425Z" fill="#965450"/>
<path d="M321.156 533.445C327.692 517.39 336.238 494.425 336.238 494.425C336.238 494.425 324.029 480.876 317.565 483.585C313.399 485.347 310.096 510.683 308.3 528.296C312.609 529.922 316.847 531.684 321.156 533.445Z" fill="#76413B"/>
<path d="M300.543 548.145C300.543 548.145 298.891 551.736 314.692 547.942L313.974 549.974C313.974 549.974 269.445 559.865 300.543 548.145Z" fill="#051F38"/>
<path d="M324.028 471.459C324.028 471.459 355.127 520.845 353.762 522.403C352.397 523.961 335.16 563.388 346.365 525.383C346.365 525.383 301.261 484.398 303.2 477.963C305.211 471.595 324.028 471.459 324.028 471.459Z" fill="#965450"/>
<path d="M344.785 531.751C344.785 531.751 346.652 535.274 353.691 521.387L354.912 523.216C354.84 523.216 334.299 561.83 344.785 531.751Z" fill="#051F38"/>
<path d="M342.128 500.86C333.796 486.973 324.029 471.459 324.029 471.459C324.029 471.459 305.212 471.595 303.201 477.963C301.908 482.095 320.438 500.792 333.581 513.393C333.653 513.461 338.752 508.109 342.128 500.86Z" fill="#76413B"/>
<path d="M343.779 397.212C343.779 397.212 324.746 377.228 313.614 389.76C302.482 402.293 285.245 443.617 287.758 460.553C289.266 470.511 299.393 481.147 307.509 488.26L300.686 524.57C300.686 524.57 328.696 531.684 326.901 531.684C325.823 531.684 354.552 458.859 357.425 435.826C360.297 412.793 343.779 397.212 343.779 397.212Z" fill="#6633CC"/>
<path opacity="0.2" d="M329.2 401.683C334.514 401.615 340.332 400.938 345.431 398.973C344.426 397.822 343.779 397.212 343.779 397.212C343.779 397.212 324.747 377.228 313.615 389.76C311.891 391.725 310.024 394.299 308.156 397.415C314.405 400.667 322.305 401.819 329.2 401.683Z" fill="#352C38"/>
<path opacity="0.2" d="M300.687 411.37C292.786 428.374 286.107 449.51 287.759 460.485C289.195 470.375 299.25 480.943 307.366 488.057C310.239 469.63 315.482 444.023 318.642 429.255C310.813 425.055 304.35 419.026 300.687 411.37Z" fill="#352C38"/>
<path d="M288.836 357.243L277.345 378.243C277.345 378.243 257.235 367.743 254.362 367.743C251.489 367.743 237.843 368.082 244.307 370.791C244.307 370.791 241.434 372.485 244.666 373.162C244.666 373.162 241.794 375.534 245.385 375.872L253.644 375.534C253.644 375.534 270.163 389.76 278.422 391.792C286.682 393.824 299.969 367.404 299.969 367.404L288.836 357.243Z" fill="#965450"/>
<path d="M290.704 372.282C292.499 372.892 294.367 373.502 296.234 374.111C298.532 370.318 299.969 367.337 299.969 367.337L288.836 357.175L282.516 368.692C285.03 370.182 287.831 371.334 290.704 372.282Z" fill="#76413B"/>
<path d="M303.2 347.082C303.2 347.082 292.427 345.388 288.477 350.807C284.527 356.227 282.731 365.034 282.731 365.034L298.173 372.147L303.2 347.082Z" fill="#34CB79"/>
<path opacity="0.1" d="M297.24 366.253C293.289 363.34 288.765 359.682 285.82 355.279C283.665 360.021 282.66 364.966 282.66 364.966L298.101 372.079L299.035 367.472C298.461 367.134 297.814 366.727 297.24 366.253Z" fill="#161826"/>
<path d="M227.645 365.237C228.076 366.321 227.43 367.54 226.28 367.947L217.806 370.86C216.656 371.266 215.364 370.656 214.933 369.573L211.557 360.698C211.126 359.614 211.773 358.395 212.922 357.988L221.397 355.075C222.546 354.669 223.839 355.279 224.269 356.363L227.645 365.237Z" fill="#23173B"/>
<path d="M234.468 358.598L207.894 367.608C203.226 369.166 200.856 374.044 202.508 378.447L210.695 399.922C212.347 404.325 217.518 406.561 222.187 405.003L248.76 395.993C253.429 394.435 255.799 389.557 254.147 385.154L245.959 363.679C244.236 359.276 239.136 356.972 234.468 358.598ZM251.561 387.118C252.208 388.88 251.274 390.844 249.407 391.454L237.987 361.647C239.855 361.037 241.937 361.918 242.584 363.679L251.561 387.118Z" fill="#C7971E"/>
<path d="M225.921 356.227C226.28 357.175 225.778 358.259 224.772 358.598L212.706 362.73C211.701 363.069 210.552 362.595 210.192 361.647L209.187 359.005C208.828 358.056 209.331 356.972 210.336 356.633L222.402 352.501C223.407 352.162 224.557 352.637 224.916 353.585L225.921 356.227Z" fill="#6633CC"/>
<path d="M242.871 369.098C242.871 369.098 247.396 367.608 248.186 368.489C248.904 369.302 244.379 370.521 244.595 370.589C244.738 370.657 249.479 369.64 249.909 370.589C250.34 371.537 244.882 373.231 244.882 373.231C244.882 373.231 250.053 371.876 250.412 372.892C250.771 373.908 245.026 375.399 245.026 375.399L244.738 373.163L244.379 370.589L242.871 369.098Z" fill="#965450"/>
<path d="M249.263 367.947C249.263 367.947 245.744 365.711 245.744 364.966C245.672 364.153 255.081 367.879 255.081 367.879L249.263 367.947Z" fill="#965450"/>
<path d="M318.642 345.388C317.924 346.607 321.443 318.223 321.443 318.223L305.14 328.587C305.14 328.587 306.576 346.743 304.781 346.811C304.062 346.811 301.261 347.827 298.173 348.911C298.891 352.298 300.328 353.043 301.549 356.295C310.67 356.227 320.581 356.024 326.183 348.165C322.951 347.149 319.576 343.694 318.642 345.388Z" fill="#76413B"/>
<path d="M303.201 347.082L302.482 344.711L320.438 340.985L321.156 345.049C321.156 345.049 342.702 351.824 345.575 367.066C348.448 382.308 347.011 392.131 343.779 397.212C343.779 397.212 318.642 400.599 307.869 395.518C297.096 390.438 285.964 352.501 291.709 349.114C297.455 345.727 303.201 347.082 303.201 347.082Z" fill="#34CB79"/>
<path opacity="0.1" d="M326.686 389.286C318.068 388.812 307.51 387.863 300.328 382.85C298.963 381.902 297.742 380.886 296.593 379.734C299.825 387.254 303.847 393.622 307.869 395.518C318.642 400.599 343.779 397.212 343.779 397.212C345.216 394.977 346.293 391.793 346.796 387.592C340.332 389.421 333.581 389.692 326.686 389.286Z" fill="#161826"/>
<path d="M325.824 377.566L344.138 376.211C344.138 376.211 339.47 406.696 334.084 417.196C328.697 427.697 303.919 469.02 313.615 445.987C313.615 445.987 301.046 463.939 311.819 445.649C311.819 445.649 299.969 460.214 310.383 444.632C310.383 444.632 298.173 457.843 311.101 439.213C311.101 439.213 301.405 443.616 312.178 436.165L322.592 410.422L325.824 377.566Z" fill="#965450"/>
<path d="M343.708 378.65C343.995 377.092 344.138 376.144 344.138 376.144L325.824 377.499L325.68 379.26C331.642 379.26 337.675 378.989 343.708 378.65Z" fill="#76413B"/>
<path d="M306.648 300C306.648 300 315.769 294.987 329.128 303.251C337.962 308.739 337.531 326.284 318.427 337.801C295.731 351.485 306.648 300 306.648 300Z" fill="#051F38"/>
<path d="M319.289 309.348C319.289 309.348 309.018 301.829 300.256 305.487C289.196 310.229 290.345 321.271 290.129 330.688C289.842 343.22 300.328 345.591 303.488 345.727C308.156 345.998 327.189 344.914 319.289 309.348Z" fill="#965450"/>
<path d="M320.294 321.068C320.294 321.068 320.725 319.171 324.173 320.661C328.554 322.626 326.184 332.517 321.3 332.246C316.344 332.042 320.294 321.068 320.294 321.068Z" fill="#965450"/>
<path d="M320.294 321.068C320.294 321.068 320.869 327.842 319.217 327.91C317.493 327.978 315.698 315.648 320.438 315.648C325.178 315.784 320.294 321.068 320.294 321.068Z" fill="#051F38"/>
<path d="M320.294 321.068C320.294 321.068 316.775 306.029 295.875 308.535C295.875 308.535 298.892 302.913 305.499 300.271C314.477 296.68 327.907 311.11 324.173 320.662C324.173 320.662 322.449 320.865 320.294 321.068Z" fill="#34CB79"/>
<path d="M329.128 307.18C329.128 307.18 327.979 289.228 332.575 289.228C337.172 289.228 332.216 304.335 332.216 304.335C332.216 304.335 336.023 282.725 347.083 285.977C358.144 289.228 339.039 304.335 339.039 304.335C339.039 304.335 347.801 296.748 350.89 299.322C353.906 301.829 338.321 306.909 338.321 306.909C338.321 306.909 350.172 303.658 351.68 309.077C353.188 314.429 328.769 313.684 329.128 307.18Z" fill="#051F38"/>
<path d="M290.704 317.613C290.704 317.613 290.704 317.478 290.847 317.207C290.991 316.936 291.135 316.597 291.494 316.258C291.853 315.92 292.284 315.513 292.858 315.242C293.002 315.175 293.146 315.107 293.361 315.039C293.505 314.971 293.72 314.904 293.864 314.904C294.079 314.904 294.223 314.836 294.438 314.836H295.013C295.372 314.836 295.731 314.971 296.09 315.107C296.449 315.242 296.737 315.378 297.024 315.581C297.311 315.784 297.527 315.987 297.742 316.191C297.958 316.394 298.101 316.597 298.173 316.8C298.245 316.868 298.317 317.004 298.317 317.071C298.389 317.139 298.389 317.275 298.46 317.342C298.532 317.546 298.604 317.681 298.604 317.817C298.676 318.088 298.676 318.223 298.676 318.223C298.676 318.223 298.532 318.155 298.245 318.088C298.101 318.02 297.958 317.952 297.814 317.884C297.67 317.817 297.455 317.749 297.24 317.613C297.024 317.546 296.88 317.41 296.665 317.342C296.449 317.275 296.234 317.207 296.019 317.139C295.803 317.071 295.588 317.004 295.372 316.936C295.157 316.936 294.941 316.868 294.726 316.868H294.438C294.367 316.868 294.223 316.868 294.079 316.868C293.864 316.868 293.648 316.936 293.433 316.936C293.218 317.004 293.002 317.004 292.787 317.071C292.571 317.139 292.356 317.139 292.14 317.207C291.709 317.342 291.35 317.41 291.135 317.478C290.919 317.613 290.704 317.613 290.704 317.613Z" fill="#051F38"/>
<path d="M296.234 336.243C296.234 336.243 308.013 336.581 308.803 336.446C309.521 336.31 302.195 341.73 296.234 336.243Z" fill="white"/>
<path d="M297.024 323.845C297.024 323.845 297.024 323.981 296.952 324.252C296.88 324.523 296.809 324.862 296.665 325.336C296.593 325.539 296.521 325.81 296.378 326.013C296.306 326.149 296.234 326.284 296.162 326.352C296.09 326.487 295.947 326.623 295.875 326.691C295.659 326.894 295.444 327.165 295.085 327.3C295.013 327.368 294.941 327.368 294.798 327.436L294.582 327.504C294.439 327.571 294.223 327.571 294.008 327.571C293.649 327.571 293.218 327.504 292.93 327.233C292.643 327.029 292.428 326.758 292.284 326.42C292.14 326.149 292.068 325.878 291.997 325.607C291.925 325.336 291.925 325.065 291.925 324.862C291.925 324.387 291.925 324.049 291.997 323.778C292.068 323.507 292.14 323.371 292.14 323.371C292.14 323.371 292.14 323.981 292.356 324.862C292.428 325.268 292.571 325.81 292.858 326.216C293.002 326.42 293.146 326.623 293.361 326.758C293.577 326.894 293.792 326.962 294.008 326.962C294.151 326.962 294.223 326.962 294.367 326.894L294.582 326.826C294.582 326.826 294.654 326.758 294.726 326.758C294.941 326.691 295.157 326.487 295.372 326.352C295.588 326.149 295.731 325.945 295.875 325.742C296.019 325.539 296.162 325.336 296.234 325.133C296.45 324.726 296.593 324.387 296.737 324.184C296.952 323.981 297.024 323.845 297.024 323.845Z" fill="#1F2733"/>
<path d="M308.875 324.726C308.875 324.726 308.875 324.862 308.803 325.133C308.731 325.404 308.659 325.742 308.515 326.217C308.444 326.42 308.372 326.691 308.228 326.894C308.156 327.029 308.085 327.165 308.013 327.233C307.941 327.368 307.797 327.504 307.725 327.571C307.51 327.775 307.294 328.046 306.935 328.181C306.864 328.249 306.792 328.249 306.648 328.317L306.433 328.384C306.289 328.452 306.074 328.452 305.858 328.452C305.499 328.452 305.068 328.384 304.781 328.113C304.493 327.91 304.278 327.639 304.134 327.3C303.991 327.029 303.919 326.758 303.847 326.487C303.775 326.217 303.775 325.946 303.775 325.742C303.775 325.268 303.775 324.929 303.847 324.658C303.919 324.387 303.991 324.252 303.991 324.252C303.991 324.252 303.991 324.862 304.206 325.742C304.278 326.149 304.422 326.691 304.709 327.097C304.853 327.3 304.996 327.504 305.212 327.639C305.427 327.775 305.643 327.842 305.858 327.842C306.002 327.842 306.074 327.842 306.217 327.775L306.433 327.707C306.433 327.707 306.504 327.639 306.576 327.639C306.792 327.571 307.007 327.368 307.223 327.233C307.438 327.029 307.582 326.826 307.725 326.623C307.869 326.42 308.013 326.217 308.085 326.013C308.3 325.607 308.444 325.268 308.587 325.065C308.803 324.862 308.875 324.726 308.875 324.726Z" fill="#1F2733"/>
<path d="M321.946 330.349C322.161 330.078 322.305 329.875 322.449 329.604C322.592 329.333 322.664 329.062 322.736 328.791C322.736 328.655 322.736 328.52 322.736 328.384C322.736 328.317 322.664 328.249 322.664 328.249C322.664 328.181 322.592 328.113 322.52 328.113C322.449 328.046 322.449 328.046 322.377 327.978L322.233 327.842C322.161 327.775 322.09 327.775 322.018 327.775L321.802 327.707L321.659 327.639V327.504C321.443 326.759 321.371 326.081 321.299 325.336C321.228 324.997 321.228 324.591 321.299 324.252C321.299 323.846 321.371 323.507 321.515 323.1C321.587 322.897 321.73 322.694 321.946 322.558C322.161 322.423 322.449 322.287 322.664 322.355C322.951 322.355 323.095 322.423 323.31 322.491C323.526 322.558 323.741 322.626 323.885 322.762C324.029 322.897 324.244 323.033 324.316 323.168C324.46 323.304 324.531 323.507 324.603 323.642C324.747 323.981 324.819 324.387 324.747 324.726C324.675 324.387 324.603 324.049 324.388 323.71C324.316 323.575 324.172 323.439 324.029 323.304C323.885 323.168 323.741 323.1 323.598 323.033C323.454 322.965 323.31 322.897 323.095 322.897C322.951 322.897 322.736 322.829 322.592 322.829C322.305 322.829 322.161 323.033 322.09 323.304C321.874 323.913 321.946 324.591 321.946 325.268C322.018 325.946 322.089 326.691 322.233 327.368L322.09 327.165L322.305 327.3C322.377 327.368 322.449 327.368 322.52 327.436L322.736 327.571C322.808 327.639 322.88 327.707 322.951 327.775C323.023 327.842 323.095 327.91 323.095 328.046C323.167 328.113 323.167 328.249 323.167 328.317C323.239 328.52 323.167 328.655 323.167 328.859C323.095 329.197 322.88 329.468 322.664 329.739C322.449 329.942 322.161 330.213 321.946 330.349Z" fill="#76413B"/>
<path d="M298.101 333.194C297.742 333.262 297.455 333.262 297.168 333.262C296.88 333.262 296.593 333.194 296.378 333.126C296.09 333.059 295.875 332.923 295.66 332.855C295.516 332.788 295.444 332.72 295.3 332.652C295.157 332.584 295.085 332.517 294.941 332.449L294.51 332.11L294.582 331.839C295.3 329.875 296.019 327.978 296.737 326.081C297.455 324.184 298.245 322.22 299.035 320.323C298.532 322.287 297.958 324.32 297.455 326.284C296.88 328.249 296.306 330.213 295.731 332.178L295.444 331.568C295.588 331.568 295.731 331.636 295.875 331.636C296.019 331.636 296.162 331.704 296.234 331.771C296.45 331.839 296.737 331.975 296.952 332.11C297.168 332.246 297.383 332.449 297.599 332.652C297.742 332.72 297.958 332.923 298.101 333.194Z" fill="#76413B"/>
<path d="M302.339 316.8C302.339 316.8 302.411 316.597 302.626 316.394C302.77 316.258 302.841 316.123 303.057 315.919C303.272 315.784 303.416 315.581 303.703 315.445C303.919 315.31 304.206 315.107 304.565 314.971C304.852 314.836 305.212 314.7 305.571 314.565C305.93 314.497 306.361 314.361 306.792 314.361C307.007 314.361 307.223 314.361 307.438 314.361L308.084 314.429C308.515 314.429 308.946 314.632 309.305 314.7C309.664 314.836 310.024 315.039 310.383 315.174C310.742 315.377 311.029 315.581 311.245 315.784C311.532 315.987 311.747 316.258 311.891 316.461C312.106 316.665 312.25 316.868 312.394 317.071C312.537 317.274 312.609 317.478 312.681 317.613C312.825 317.884 312.896 318.087 312.896 318.087C312.896 318.087 312.681 318.019 312.394 317.884C312.25 317.816 312.035 317.749 311.819 317.613C311.604 317.478 311.388 317.41 311.101 317.342C310.885 317.274 310.598 317.139 310.311 317.003C310.024 316.936 309.736 316.8 309.449 316.732C309.162 316.665 308.874 316.597 308.587 316.529C308.3 316.529 308.013 316.394 307.653 316.394L307.223 316.326H306.792C306.504 316.326 306.145 316.326 305.858 316.326C305.571 316.326 305.283 316.326 304.996 316.394C304.709 316.394 304.422 316.461 304.134 316.461C303.632 316.529 303.129 316.597 302.841 316.665C302.554 316.8 302.339 316.8 302.339 316.8Z" fill="#051F38"/>
<path d="M292.428 548.484C292.428 550.923 290.345 552.955 287.759 553.023C285.174 553.023 283.019 551.058 282.947 548.62L282.732 534.258C282.732 531.819 284.814 529.787 287.4 529.719C289.986 529.719 292.14 531.684 292.212 534.122L292.428 548.484Z" fill="#091E1D"/>
<path d="M226.28 549.23C226.28 551.668 224.198 553.701 221.612 553.769C219.027 553.769 216.872 551.804 216.8 549.365L216.585 535.003C216.585 532.565 218.667 530.532 221.253 530.465C223.839 530.465 225.993 532.429 226.065 534.868L226.28 549.23Z" fill="#091E1D"/>
<path d="M287.113 538.255C287.185 543.81 282.444 548.349 276.555 548.416L232.313 548.891C226.424 548.958 221.612 544.487 221.54 538.932L216.8 443.955C216.728 438.4 221.468 433.861 227.358 433.794L278.71 433.184C284.599 433.116 289.411 437.587 289.483 443.142L287.113 538.255Z" fill="#34CB79"/>
<path opacity="0.1" d="M289.196 452.694L289.411 443.278C289.339 437.723 284.527 433.252 278.638 433.319L227.286 433.929C221.397 433.997 216.656 438.536 216.728 444.091L217.231 453.507L289.196 452.694Z" fill="#161826"/>
<path d="M297.958 440.907C297.958 442.465 296.665 443.684 295.013 443.752L211.126 444.701C209.474 444.701 208.182 443.481 208.11 441.923L207.966 431.897C207.966 430.339 209.259 429.119 210.911 429.052L294.798 428.103C296.45 428.103 297.742 429.323 297.814 430.881L297.958 440.907Z" fill="#34CB79"/>
<path d="M253.429 468.75L263.197 463.195L260.826 468.953L253.429 468.75Z" fill="white"/>
<path d="M249.766 460.011C249.766 460.011 250.556 460.011 251.777 461.772C252.998 463.533 255.727 468.275 255.727 468.275L260.683 466.175L261.832 464.346C261.832 464.346 259.677 460.282 257.954 460.011H249.766Z" fill="white"/>
<path d="M247.037 461.23C247.037 461.23 248.545 459.672 249.766 460.485C250.987 461.298 253.142 464.685 253.142 464.685L249.622 470.511L243.302 467.192L247.037 461.23Z" fill="white"/>
<path d="M257.882 475.998L258.385 486.702L254.147 482.027L257.882 475.998Z" fill="white"/>
<path d="M267.793 477.082C267.793 477.082 267.434 477.76 265.208 477.963C262.981 478.166 257.235 478.166 257.235 478.166L256.804 483.315L257.954 485.144C257.954 485.144 262.766 485.347 263.843 483.992L267.793 477.082Z" fill="white"/>
<path d="M267.865 474.237C267.865 474.237 268.655 476.202 267.29 476.879C265.998 477.489 261.76 477.624 261.76 477.624L257.954 471.934L264.058 468.208L267.865 474.237Z" fill="white"/>
<path d="M249.262 475.863L239.207 470.85L245.671 469.766L249.262 475.863Z" fill="white"/>
<path d="M243.302 483.382C243.302 483.382 242.871 482.773 243.805 480.876C244.738 478.979 247.611 474.305 247.611 474.305L243.158 471.392L240.932 471.459C240.932 471.459 238.346 475.321 238.993 476.811L243.302 483.382Z" fill="white"/>
<path d="M245.816 484.873C245.816 484.873 243.589 484.466 243.733 483.111C243.805 481.689 245.816 478.234 245.816 478.234L252.926 478.031L253.213 484.873H245.816Z" fill="white"/>
<path d="M99.3009 521.658C99.3009 521.658 97.7208 545.571 96.3563 546.045C91.1133 547.739 51.54 557.223 88.9587 541.303L87.9532 523.893L99.3009 521.658Z" fill="#051F38"/>
<path d="M97.6491 540.219C98.5827 532.971 99.301 521.658 99.301 521.658L87.9532 523.893L88.8869 539.406C91.6879 540.152 94.9199 540.219 97.6491 540.219Z" fill="#041523"/>
<path d="M73.0864 549.636C71.9372 552.278 92.6217 547.265 96.3564 546.045C96.4282 545.978 96.5718 545.842 96.7155 545.503C92.0471 546.723 77.8984 549.771 73.0864 549.636Z" fill="white"/>
<path d="M123.505 520.37C123.505 520.37 125.587 544.284 127.024 544.691C132.339 546.316 172.056 555.055 134.278 539.813L134.924 522.403L123.505 520.37Z" fill="#051F38"/>
<path d="M125.587 538.865C124.51 531.684 123.505 520.37 123.505 520.37L134.924 522.403L134.35 537.916C131.549 538.729 128.317 538.797 125.587 538.865Z" fill="#041523"/>
<path d="M150.366 547.874C151.587 550.516 130.759 545.842 127.024 544.691C126.88 544.691 126.808 544.487 126.665 544.149C131.333 545.368 145.554 548.145 150.366 547.874Z" fill="white"/>
<path d="M130.471 391.251C130.471 391.251 140.813 470.037 138.731 533.784C138.731 533.784 126.377 537.035 123.145 534.664C120.344 519.558 120.704 490.157 116.538 468.343C112.588 447.749 111.008 430.881 111.008 430.881L109.715 429.526C109.715 429.526 101.24 529.109 99.3727 536.697C88.6714 539.068 85.2958 536.29 85.2958 536.29C85.2958 536.29 80.412 411.709 83.4285 391.589C87.3068 365.305 130.471 391.251 130.471 391.251Z" fill="#34CB79"/>
<path opacity="0.1" d="M132.338 407.577C131.261 397.415 130.399 391.318 130.399 391.318C130.399 391.318 87.3061 365.372 83.356 391.657C82.9968 394.096 82.7814 398.093 82.5659 403.173C85.7979 404.867 126.161 410.286 132.338 407.577Z" fill="#161826"/>
<path opacity="0.1" d="M110.218 428.713C110.721 434.065 113.306 451.34 116.538 468.343C120.704 490.225 120.345 519.558 123.146 534.665C126.377 537.036 138.731 533.784 138.731 533.784C139.952 494.56 136.576 449.646 133.703 420.923C126.88 424.987 118.19 426.952 110.218 428.713Z" fill="#161826"/>
<path d="M113.881 322.355C113.952 314.09 114.599 303.184 114.599 303.184L97.3618 298.713C97.3618 298.713 97.9364 313.481 98.4391 322.491C90.6106 324.997 81.7048 329.739 81.7048 329.739L114.24 337.53L125.803 326.962C125.803 326.962 119.985 324.184 113.881 322.355Z" fill="#FFB39F"/>
<path d="M113.881 322.355C113.952 314.09 114.599 303.184 114.599 303.184L97.3618 298.713C97.3618 298.713 97.9364 313.481 98.4391 322.491C90.6106 324.997 81.7048 329.739 81.7048 329.739L114.24 337.53L129.609 325.065C129.609 325.065 120.057 321.678 113.881 322.355Z" fill="#E09B8D"/>
<path d="M95.8534 283.064C95.8534 283.064 100.378 269.244 112.3 271.412C124.223 273.58 125.946 288.28 127.455 298.171C128.963 308.129 125.587 317.071 116.251 318.155C108.135 319.103 93.986 317.613 95.8534 283.064Z" fill="#FFB39F"/>
<path d="M96.428 294.648C96.428 294.648 95.7098 292.819 92.7651 294.851C89.0304 297.425 92.8369 306.91 97.3616 305.893C101.886 304.877 96.428 294.648 96.428 294.648Z" fill="#FFB39F"/>
<path d="M92.2624 275.138C92.5497 275.07 98.1517 274.663 94.417 275.002C97.8644 278.525 97.5053 279.405 102.245 280.218C104.759 287.535 99.8036 291.938 99.8036 291.938L101.168 300.745L97.5771 301.084C97.5771 301.084 97.649 294.987 94.9198 294.445C92.1906 293.903 91.4005 297.019 91.4005 297.019C85.7267 290.245 79.981 276.967 92.2624 275.138Z" fill="#051F38"/>
<path d="M124.797 270.192C127.095 264.841 123.217 260.099 123.217 260.099C123.864 262.063 123.576 263.892 122.93 265.383C122.499 263.892 121.709 262.266 120.272 260.64C120.272 260.64 120.703 266.06 112.875 265.383C105.046 264.705 91.3287 265.721 90.7541 277.17C90.1077 288.619 101.815 280.286 101.815 280.286C101.815 280.286 125.156 286.451 128.532 268.702L124.797 270.192Z" fill="#051F38"/>
<path d="M113.737 289.974C113.737 289.974 113.522 289.974 113.234 289.906C112.875 289.839 112.444 289.771 111.941 289.703C111.654 289.635 111.439 289.635 111.151 289.635C110.864 289.568 110.577 289.568 110.29 289.568C110.002 289.568 109.715 289.568 109.356 289.568C109.212 289.568 109.069 289.568 108.925 289.568L108.494 289.635C108.207 289.635 107.919 289.703 107.56 289.771C107.273 289.839 106.986 289.906 106.699 289.974C106.411 290.042 106.124 290.177 105.837 290.245C105.549 290.313 105.334 290.448 105.047 290.516C104.831 290.584 104.544 290.652 104.4 290.787C104.185 290.855 104.041 290.923 103.898 290.99C103.61 291.126 103.395 291.194 103.395 291.194C103.395 291.194 103.467 290.99 103.61 290.719C103.682 290.584 103.754 290.381 103.898 290.177C104.041 289.974 104.185 289.771 104.4 289.568C104.616 289.364 104.759 289.094 105.047 288.89C105.334 288.687 105.621 288.484 105.98 288.281C106.339 288.145 106.699 287.942 107.058 287.806C107.489 287.671 107.848 287.603 108.279 287.535L108.925 287.468C109.14 287.468 109.356 287.468 109.571 287.535C109.787 287.535 110.002 287.603 110.146 287.603C110.361 287.671 110.505 287.671 110.721 287.739C111.08 287.874 111.439 287.942 111.726 288.145C112.013 288.281 112.301 288.484 112.588 288.619C112.803 288.755 113.019 288.958 113.234 289.094C113.378 289.229 113.522 289.432 113.665 289.5C113.593 289.771 113.737 289.974 113.737 289.974Z" fill="#051F38"/>
<path d="M125.875 289.635C125.875 289.635 125.731 289.567 125.444 289.499C125.156 289.432 124.797 289.296 124.438 289.161C124.223 289.093 124.007 289.025 123.792 288.957C123.576 288.89 123.361 288.822 123.145 288.822C122.93 288.822 122.714 288.754 122.499 288.686C122.427 288.686 122.283 288.686 122.212 288.619H121.924C121.709 288.551 121.493 288.686 121.278 288.619C121.063 288.686 120.847 288.686 120.632 288.754C120.416 288.822 120.201 288.89 119.985 288.957C119.77 289.025 119.554 289.093 119.411 289.161C119.195 289.228 118.98 289.296 118.836 289.364C118.692 289.432 118.549 289.499 118.405 289.499C118.118 289.567 117.974 289.635 117.974 289.635C117.974 289.635 117.974 289.499 118.118 289.228C118.19 289.093 118.19 288.957 118.333 288.754C118.405 288.551 118.549 288.416 118.692 288.212C118.836 288.009 118.98 287.806 119.195 287.603C119.411 287.399 119.698 287.264 119.913 287.061C120.201 286.925 120.56 286.79 120.847 286.654C121.206 286.586 121.565 286.519 121.924 286.519C122.14 286.519 122.284 286.519 122.499 286.519C122.714 286.519 122.858 286.586 123.002 286.654C123.145 286.654 123.361 286.722 123.504 286.79C123.648 286.857 123.792 286.925 123.935 286.993C124.51 287.332 124.941 287.67 125.228 288.077C125.515 288.483 125.659 288.822 125.803 289.093C125.875 289.499 125.875 289.635 125.875 289.635Z" fill="#051F38"/>
<path d="M117.041 290.38C117.472 291.261 117.903 292.209 118.333 293.09C118.549 293.564 118.693 293.971 118.908 294.445L119.483 295.8L120.057 297.155C120.273 297.629 120.416 298.035 120.632 298.509L120.919 299.187C120.991 299.39 121.134 299.661 121.206 299.864C121.422 300.271 121.637 300.677 121.853 301.151L122.068 301.693L121.637 301.897C120.991 302.168 120.344 302.506 119.626 302.777C118.98 303.048 118.262 303.319 117.543 303.522C118.118 303.048 118.693 302.642 119.267 302.235C119.842 301.829 120.488 301.422 121.063 301.016L120.847 301.761C120.56 301.355 120.273 300.88 119.985 300.474C119.698 300.068 119.483 299.593 119.267 299.119L118.908 298.442L118.621 297.764C118.477 297.29 118.262 296.816 118.118 296.342L117.687 294.919C117.543 294.445 117.472 293.971 117.328 293.496C117.256 292.412 117.112 291.396 117.041 290.38Z" fill="#DD9078"/>
<path d="M96.2126 303.929C95.9253 303.793 95.638 303.59 95.4226 303.319C95.2071 303.116 94.9198 302.845 94.7762 302.506C94.7044 302.371 94.6326 302.167 94.6326 301.964C94.6326 301.897 94.6326 301.761 94.6326 301.693C94.6326 301.626 94.7044 301.49 94.7044 301.422C94.7762 301.219 94.9198 301.084 95.0635 300.948C95.1353 300.88 95.2071 300.813 95.2789 300.745L95.4944 300.609L95.3508 300.813C95.3508 300.067 95.3508 299.322 95.2789 298.645C95.2071 297.9 95.1353 297.154 94.848 296.545C94.7762 296.409 94.7044 296.274 94.5607 296.206C94.4889 296.138 94.3453 296.071 94.2016 296.071C94.1298 296.071 94.058 296.071 93.9862 296.138C93.9143 296.138 93.7707 296.206 93.6989 296.206C93.5552 296.274 93.4116 296.342 93.268 296.477C93.1243 296.612 92.9807 296.68 92.9088 296.816C92.837 296.951 92.6934 297.087 92.6216 297.29C92.4779 297.629 92.4061 297.967 92.4061 298.374C92.2625 298.035 92.2625 297.629 92.3343 297.222C92.3343 297.019 92.4061 296.816 92.5497 296.68C92.6216 296.477 92.7652 296.342 92.9088 296.206L93.1243 296.003L93.4116 295.8C93.4834 295.732 93.6271 295.732 93.6989 295.664C93.7707 295.596 93.9143 295.596 94.058 295.529C94.3453 295.461 94.6326 295.529 94.848 295.732C95.0635 295.867 95.2071 296.071 95.2789 296.274C95.4944 296.68 95.5662 297.019 95.7099 297.425C95.7817 297.832 95.8535 298.171 95.8535 298.577C95.9253 299.322 95.9253 300.067 95.8535 300.88V301.016L95.7099 301.084C95.5662 301.151 95.4226 301.219 95.3508 301.355C95.2789 301.422 95.1353 301.558 95.0635 301.626C94.9917 301.693 94.9917 301.761 94.9917 301.829C94.9917 301.897 94.9198 301.964 94.9198 302.032C94.9198 302.167 94.9198 302.303 94.9198 302.438C94.9917 302.709 95.1353 302.98 95.3508 303.251C95.7817 303.522 95.9971 303.726 96.2126 303.929Z" fill="#DD9078"/>
<path d="M107.489 296.409C107.489 296.409 107.56 296.545 107.632 296.816C107.704 296.951 107.704 297.087 107.776 297.222C107.848 297.358 107.919 297.561 108.063 297.764C108.135 297.967 108.35 298.103 108.422 298.306C108.494 298.374 108.566 298.442 108.709 298.577C108.781 298.645 108.853 298.713 108.997 298.78C109.212 298.916 109.428 298.983 109.643 299.051C109.787 299.051 109.859 299.119 110.002 299.119C110.146 299.119 110.218 299.119 110.361 299.051L110.72 298.916L111.08 298.713C111.295 298.577 111.439 298.374 111.582 298.171C111.726 297.967 111.798 297.764 111.941 297.561C112.013 297.358 112.085 297.154 112.085 296.883C112.085 296.68 112.085 296.477 112.157 296.341C112.157 296.138 112.157 296.003 112.157 295.867C112.157 295.596 112.157 295.461 112.157 295.461C112.157 295.461 112.229 295.596 112.301 295.867C112.372 296.003 112.372 296.138 112.444 296.341C112.444 296.545 112.516 296.748 112.516 296.951C112.516 297.154 112.516 297.425 112.444 297.696C112.372 297.967 112.301 298.238 112.157 298.509C112.013 298.78 111.798 299.051 111.51 299.254L111.08 299.525C110.936 299.593 110.72 299.661 110.577 299.729C110.433 299.729 110.218 299.796 110.002 299.796C109.859 299.796 109.643 299.729 109.5 299.729C109.14 299.661 108.853 299.458 108.566 299.254C108.279 299.051 108.135 298.78 107.991 298.577C107.848 298.306 107.704 298.103 107.632 297.9C107.56 297.696 107.489 297.493 107.489 297.29C107.489 297.087 107.489 296.951 107.489 296.816C107.489 296.545 107.489 296.409 107.489 296.409Z" fill="#1F2733"/>
<path d="M120.488 294.377C120.488 294.377 120.56 294.512 120.632 294.783C120.703 294.919 120.703 295.054 120.775 295.19C120.847 295.325 120.919 295.529 121.063 295.732C121.134 295.935 121.35 296.071 121.422 296.274C121.494 296.342 121.565 296.409 121.709 296.545C121.781 296.613 121.853 296.68 121.996 296.748C122.212 296.884 122.427 296.951 122.643 297.019C122.786 297.019 122.858 297.087 123.002 297.087C123.145 297.087 123.217 297.087 123.361 297.019L123.72 296.884L124.079 296.68C124.295 296.545 124.438 296.342 124.582 296.138C124.725 295.935 124.797 295.732 124.941 295.529C125.013 295.325 125.085 295.122 125.085 294.851C125.085 294.648 125.085 294.445 125.156 294.309C125.156 294.106 125.156 293.971 125.156 293.835C125.156 293.564 125.156 293.429 125.156 293.429C125.156 293.429 125.228 293.564 125.3 293.835C125.372 293.971 125.372 294.106 125.444 294.309C125.444 294.512 125.516 294.716 125.516 294.919C125.516 295.122 125.515 295.393 125.444 295.664C125.372 295.935 125.3 296.206 125.156 296.477C125.013 296.748 124.797 297.019 124.51 297.222L124.079 297.493C123.935 297.561 123.72 297.629 123.576 297.696C123.433 297.696 123.217 297.764 123.002 297.764C122.858 297.764 122.643 297.696 122.499 297.696C122.14 297.629 121.853 297.425 121.565 297.222C121.278 297.019 121.134 296.748 120.991 296.545C120.847 296.274 120.703 296.071 120.632 295.867C120.56 295.664 120.488 295.461 120.488 295.258C120.488 295.054 120.488 294.919 120.488 294.783C120.488 294.512 120.488 294.377 120.488 294.377Z" fill="#1F2733"/>
<path d="M108.619 305.988C108.619 305.988 108.548 305.988 108.619 306.056C108.691 306.124 108.835 306.192 108.979 306.259C109.266 306.463 109.769 306.666 110.343 306.937C110.918 307.208 111.636 307.479 112.354 307.682C112.713 307.818 113.144 307.885 113.503 307.953C113.862 308.021 114.293 308.088 114.724 308.156C115.514 308.224 116.304 308.292 117.094 308.224C117.884 308.156 118.531 308.021 119.177 307.818C119.752 307.614 120.254 307.479 120.614 307.343C120.973 307.208 121.188 307.14 121.188 307.14C121.188 307.14 121.044 307.343 120.757 307.547C120.47 307.818 120.039 308.156 119.464 308.495C118.89 308.834 118.1 309.172 117.238 309.308C116.376 309.511 115.442 309.511 114.509 309.443C114.078 309.376 113.575 309.308 113.144 309.172C112.713 309.037 112.282 308.901 111.923 308.698C111.133 308.359 110.487 307.953 109.984 307.547C109.481 307.14 109.05 306.734 108.835 306.395C108.691 306.259 108.619 306.124 108.619 305.988C108.548 305.988 108.548 306.056 108.619 305.988Z" fill="#DD9078"/>
<path d="M119.842 322.152C119.842 322.152 138.228 320.323 140.598 333.601C142.968 346.946 142.753 350.537 142.753 350.537L124.797 348.03L119.842 322.152Z" fill="#6633CC"/>
<path d="M135.354 332.855C134.277 324.387 125.156 322.558 119.841 322.151C117.471 325.267 114.167 327.503 109.643 327.638C104.471 327.774 99.7313 326.08 97.2176 322.354C89.1736 323.235 81.2015 325.403 79.406 330.551C75.5995 341.391 78.9032 401.005 78.9032 401.005C78.9032 401.005 111.079 406.221 137.509 401.479C137.437 401.547 136.791 344.168 135.354 332.855Z" fill="#6633CC"/>
<path opacity="0.2" d="M77.5392 359.546C77.6828 379.192 78.9038 401.073 78.9038 401.073C78.9038 401.073 111.08 406.29 137.51 401.548C137.51 401.548 137.007 357.988 135.93 339.291C116.466 346.133 97.0027 352.908 77.5392 359.546Z" fill="#352C38"/>
<path d="M97.3615 375.263C97.3615 375.263 96.6433 373.298 99.947 372.011C103.251 370.724 137.294 362.324 139.449 362.595C141.603 362.866 167.961 365.847 168.392 367.201C168.823 368.556 136.863 378.311 136.863 378.311L97.3615 375.263Z" fill="#E1EDFF"/>
<path d="M138.659 380.886C138.659 380.886 101.384 380.75 98.511 377.566C95.6381 374.382 95.5663 372.079 111.87 374.789C128.173 377.499 137.582 377.092 137.582 377.092C137.582 377.092 167.459 363.95 168.465 367.134C169.398 370.385 172.558 369.573 138.659 380.886Z" fill="#C0D5FF"/>
<path d="M168.393 367.202C167.459 364.018 137.51 377.16 137.51 377.16C137.51 377.16 137.438 377.16 137.222 377.16C137.869 378.379 138.372 379.531 138.946 380.818C172.558 369.573 169.398 370.385 168.393 367.202Z" fill="#B1C5E8"/>
<path d="M96.2838 368.014C96.2838 368.014 95.5656 366.05 98.8694 364.763C102.173 363.476 136.216 355.075 138.371 355.346C140.526 355.617 166.884 358.598 167.315 359.953C167.746 361.308 135.785 371.063 135.785 371.063L96.2838 368.014Z" fill="#E1EDFF"/>
<path d="M137.581 373.705C137.581 373.705 100.306 373.569 97.4333 370.385C94.5605 367.201 94.4887 364.898 110.792 367.608C127.095 370.318 136.504 369.911 136.504 369.911C136.504 369.911 166.381 356.769 167.387 359.953C168.249 363.137 171.481 362.324 137.581 373.705Z" fill="#C0D5FF"/>
<path d="M167.315 360.021C166.382 356.837 136.432 369.979 136.432 369.979C136.432 369.979 136.36 369.979 136.145 369.979C136.791 371.198 137.294 372.35 137.869 373.637C171.409 362.324 168.249 363.137 167.315 360.021Z" fill="#B1C5E8"/>
<path d="M96.1404 362.121C96.1404 362.121 95.494 360.427 98.6542 359.276C101.814 358.124 134.78 350.74 136.863 351.011C138.946 351.282 164.442 353.924 164.873 355.075C165.304 356.227 134.349 364.898 134.349 364.898L96.1404 362.121Z" fill="#E1EDFF"/>
<path d="M136.073 367.134C136.073 367.134 100.019 366.998 97.2182 364.221C94.4172 361.443 94.4172 359.411 110.146 361.782C125.875 364.153 134.996 363.814 134.996 363.814C134.996 363.814 163.94 352.23 164.873 355.075C165.807 357.853 168.895 357.108 136.073 367.134Z" fill="#C0D5FF"/>
<path d="M164.873 355.075C163.94 352.298 134.996 363.814 134.996 363.814C134.996 363.814 134.924 363.814 134.709 363.814C135.283 364.831 135.858 365.914 136.361 366.998C168.895 357.108 165.807 357.853 164.873 355.075Z" fill="#B1C5E8"/>
<path d="M97.146 354.195C97.146 354.195 96.5714 352.501 99.8033 351.417C103.035 350.401 136.217 344.169 138.299 344.507C140.382 344.778 165.735 348.369 166.094 349.52C166.453 350.672 135.211 358.192 135.211 358.192L97.146 354.195Z" fill="white"/>
<path d="M136.863 360.63C136.863 360.63 100.809 359.207 98.1519 356.362C95.4945 353.449 95.4945 351.484 111.151 354.397C126.808 357.31 135.93 357.31 135.93 357.31C135.93 357.31 165.304 346.81 166.094 349.588C166.956 352.365 170.045 351.755 136.863 360.63Z" fill="#C0D5FF"/>
<path d="M166.094 349.588C165.304 346.743 135.93 357.311 135.93 357.311C135.93 357.311 135.858 357.311 135.642 357.311C136.217 358.395 136.72 359.479 137.151 360.563C169.973 351.756 166.884 352.366 166.094 349.588Z" fill="#B1C5E8"/>
<path d="M78.401 355.482L96.1408 351.417C96.1408 351.417 99.9473 375.805 100.953 377.16C101.958 378.515 131.62 379.87 131.62 379.87L140.239 380.344C140.239 380.344 103.826 394.773 93.3398 388.947C82.7103 382.986 78.401 355.482 78.401 355.482Z" fill="#FFB39F"/>
<path d="M80.1247 358.395C85.5831 356.837 90.8978 354.94 96.4999 353.788C96.2844 352.298 96.1408 351.417 96.1408 351.417L78.401 355.482C78.401 355.482 78.6165 356.701 78.9756 358.734C79.4065 358.598 79.7656 358.463 80.1247 358.395Z" fill="#E09B8D"/>
<path d="M136.935 382.579C136.935 382.579 150.438 379.192 150.438 376.618C150.438 374.044 145.554 364.763 149.001 377.16C149.001 377.16 141.819 360.359 147.565 377.973C147.565 377.973 141.963 364.288 145.769 378.311C145.769 378.311 140.024 368.827 144.189 378.989L139.018 380.818L126.593 380.682L119.985 386.779L136.935 382.579Z" fill="#FFB39F"/>
<path d="M168.536 370.182C168.536 370.182 161.354 353.382 167.1 370.995C167.1 370.995 161.498 357.311 165.304 371.334C165.304 371.334 159.559 361.85 163.222 372.079L159.271 373.84C160.708 373.976 162.575 373.908 164.083 373.434C168.68 372.553 169.973 371.063 169.973 369.708C169.973 367.134 165.089 357.853 168.536 370.182Z" fill="#FFB39F"/>
<path d="M186.851 548.484C186.851 550.923 184.768 552.955 182.182 553.023C179.597 553.023 177.442 551.058 177.37 548.62L177.155 534.258C177.155 531.819 179.238 529.787 181.823 529.719C184.409 529.719 186.564 531.684 186.635 534.122L186.851 548.484Z" fill="#091E1D"/>
<path d="M120.704 549.23C120.704 551.668 118.621 553.701 116.035 553.769C113.45 553.769 111.295 551.804 111.223 549.365L111.008 535.003C111.008 532.565 113.091 530.532 115.676 530.465C118.262 530.465 120.416 532.429 120.488 534.868L120.704 549.23Z" fill="#091E1D"/>
<path d="M181.536 538.255C181.608 543.81 176.867 548.349 170.978 548.416L126.736 548.891C120.847 548.958 116.035 544.487 115.963 538.932L111.223 443.955C111.151 438.4 115.891 433.862 121.781 433.794L173.133 433.184C179.022 433.116 183.834 437.587 183.906 443.142L181.536 538.255Z" fill="#C7971E"/>
<path d="M183.619 452.694L183.834 443.278C183.762 437.723 178.95 433.252 173.061 433.319L121.709 433.929C115.82 433.997 111.079 438.536 111.151 444.091L111.654 453.507L183.619 452.694Z" fill="#1C0C3B"/>
<path d="M192.381 440.907C192.381 442.465 191.088 443.684 189.436 443.752L105.549 444.701C103.898 444.701 102.605 443.481 102.533 441.923L102.389 431.897C102.389 430.339 103.682 429.119 105.334 429.052L189.221 428.103C190.873 428.103 192.165 429.323 192.237 430.881L192.381 440.907Z" fill="#C7971E"/>
<path d="M147.852 468.75L157.62 463.195L155.25 468.953L147.852 468.75Z" fill="white"/>
<path d="M144.189 460.011C144.189 460.011 144.979 460.011 146.2 461.772C147.421 463.533 150.15 468.275 150.15 468.275L155.106 466.175L156.255 464.346C156.255 464.346 154.1 460.282 152.377 460.011H144.189Z" fill="white"/>
<path d="M141.46 461.23C141.46 461.23 142.968 459.672 144.189 460.485C145.41 461.298 147.565 464.685 147.565 464.685L144.046 470.511L137.725 467.192L141.46 461.23Z" fill="white"/>
<path d="M152.305 475.998L152.808 486.702L148.57 482.027L152.305 475.998Z" fill="white"/>
<path d="M162.216 477.082C162.216 477.082 161.857 477.76 159.631 477.963C157.404 478.166 151.658 478.166 151.658 478.166L151.227 483.315L152.377 485.144C152.377 485.144 157.189 485.347 158.266 483.992L162.216 477.082Z" fill="white"/>
<path d="M162.288 474.237C162.288 474.237 163.078 476.201 161.713 476.879C160.421 477.489 156.183 477.624 156.183 477.624L152.377 471.934L158.481 468.208L162.288 474.237Z" fill="white"/>
<path d="M143.758 475.863L133.703 470.85L140.095 469.766L143.758 475.863Z" fill="white"/>
<path d="M137.725 483.382C137.725 483.382 137.294 482.773 138.228 480.876C139.162 478.979 142.035 474.305 142.035 474.305L137.582 471.392L135.355 471.459C135.355 471.459 132.77 475.321 133.416 476.811L137.725 483.382Z" fill="white"/>
<path d="M140.311 484.873C140.311 484.873 138.084 484.466 138.228 483.111C138.3 481.689 140.311 478.234 140.311 478.234L147.421 478.031L147.708 484.873H140.311Z" fill="white"/>
<path d="M111.016 530.648V539.16H97.64V575H87.656V539.16H74.28V530.648H111.016ZM132.643 549.784C131.79 549.571 130.787 549.357 129.635 549.144C128.483 548.888 127.246 548.76 125.923 548.76C125.326 548.76 124.6 548.824 123.747 548.952C122.936 549.037 122.318 549.144 121.891 549.272V575H112.355V543.128C114.062 542.531 116.067 541.976 118.371 541.464C120.718 540.909 123.32 540.632 126.179 540.632C126.691 540.632 127.31 540.675 128.035 540.76C128.76 540.803 129.486 540.888 130.211 541.016C130.936 541.101 131.662 541.229 132.387 541.4C133.112 541.528 133.731 541.699 134.243 541.912L132.643 549.784ZM151.594 568.344C152.533 568.344 153.429 568.323 154.282 568.28C155.135 568.237 155.818 568.173 156.33 568.088V560.856C155.946 560.771 155.37 560.685 154.602 560.6C153.834 560.515 153.13 560.472 152.49 560.472C151.594 560.472 150.741 560.536 149.93 560.664C149.162 560.749 148.479 560.941 147.882 561.24C147.285 561.539 146.815 561.944 146.474 562.456C146.133 562.968 145.962 563.608 145.962 564.376C145.962 565.869 146.453 566.915 147.434 567.512C148.458 568.067 149.845 568.344 151.594 568.344ZM150.826 540.44C153.642 540.44 155.989 540.76 157.866 541.4C159.743 542.04 161.237 542.957 162.346 544.152C163.498 545.347 164.309 546.797 164.778 548.504C165.247 550.211 165.482 552.109 165.482 554.2V574.04C164.117 574.339 162.218 574.68 159.786 575.064C157.354 575.491 154.41 575.704 150.954 575.704C148.778 575.704 146.794 575.512 145.002 575.128C143.253 574.744 141.738 574.125 140.458 573.272C139.178 572.376 138.197 571.224 137.514 569.816C136.831 568.408 136.49 566.68 136.49 564.632C136.49 562.669 136.874 561.005 137.642 559.64C138.453 558.275 139.519 557.187 140.842 556.376C142.165 555.565 143.679 554.989 145.386 554.648C147.093 554.264 148.863 554.072 150.698 554.072C151.935 554.072 153.023 554.136 153.962 554.264C154.943 554.349 155.733 554.477 156.33 554.648V553.752C156.33 552.131 155.839 550.829 154.858 549.848C153.877 548.867 152.17 548.376 149.738 548.376C148.117 548.376 146.517 548.504 144.938 548.76C143.359 548.973 141.994 549.293 140.842 549.72L139.626 542.04C140.181 541.869 140.863 541.699 141.674 541.528C142.527 541.315 143.445 541.144 144.426 541.016C145.407 540.845 146.431 540.717 147.498 540.632C148.607 540.504 149.717 540.44 150.826 540.44ZM183.769 568.152C185.518 568.152 186.756 567.981 187.481 567.64C188.206 567.299 188.569 566.637 188.569 565.656C188.569 564.888 188.1 564.227 187.161 563.672C186.222 563.075 184.793 562.413 182.873 561.688C181.38 561.133 180.014 560.557 178.777 559.96C177.582 559.363 176.558 558.659 175.705 557.848C174.852 556.995 174.19 555.992 173.721 554.84C173.252 553.688 173.017 552.301 173.017 550.68C173.017 547.523 174.19 545.027 176.537 543.192C178.884 541.357 182.105 540.44 186.201 540.44C188.249 540.44 190.212 540.632 192.089 541.016C193.966 541.357 195.46 541.741 196.569 542.168L194.905 549.592C193.796 549.208 192.58 548.867 191.257 548.568C189.977 548.269 188.526 548.12 186.905 548.12C183.918 548.12 182.425 548.952 182.425 550.616C182.425 551 182.489 551.341 182.617 551.64C182.745 551.939 183.001 552.237 183.385 552.536C183.769 552.792 184.281 553.091 184.921 553.432C185.604 553.731 186.457 554.072 187.481 554.456C189.572 555.224 191.3 555.992 192.665 556.76C194.03 557.485 195.097 558.296 195.865 559.192C196.676 560.045 197.23 561.005 197.529 562.072C197.87 563.139 198.041 564.376 198.041 565.784C198.041 569.112 196.782 571.629 194.265 573.336C191.79 575.043 188.27 575.896 183.705 575.896C180.718 575.896 178.222 575.64 176.217 575.128C174.254 574.616 172.889 574.189 172.121 573.848L173.721 566.104C175.342 566.744 177.006 567.256 178.713 567.64C180.42 567.981 182.105 568.152 183.769 568.152ZM205.168 575V526.872L214.704 525.336V541.464C215.344 541.251 216.154 541.059 217.135 540.888C218.16 540.675 219.141 540.568 220.08 540.568C222.81 540.568 225.072 540.952 226.864 541.72C228.698 542.445 230.149 543.491 231.216 544.856C232.325 546.221 233.093 547.843 233.52 549.72C233.989 551.597 234.224 553.688 234.224 555.992V575H224.688V557.144C224.688 554.072 224.282 551.896 223.472 550.616C222.704 549.336 221.253 548.696 219.12 548.696C218.266 548.696 217.456 548.781 216.688 548.952C215.962 549.08 215.301 549.229 214.704 549.4V575H205.168ZM239.975 551.576H258.535V560.216H239.975V551.576ZM265.245 530.648H275.229V575H265.245V530.648ZM284.535 532.952L294.071 531.416V541.336H305.527V549.272H294.071V561.112C294.071 563.117 294.412 564.717 295.095 565.912C295.82 567.107 297.25 567.704 299.383 567.704C300.407 567.704 301.452 567.619 302.519 567.448C303.628 567.235 304.631 566.957 305.527 566.616L306.871 574.04C305.719 574.509 304.439 574.915 303.031 575.256C301.623 575.597 299.895 575.768 297.847 575.768C295.244 575.768 293.09 575.427 291.383 574.744C289.676 574.019 288.311 573.037 287.287 571.8C286.263 570.52 285.538 568.984 285.111 567.192C284.727 565.4 284.535 563.416 284.535 561.24V532.952Z" fill="#E1FAEC"/>
<path d="M291.593 754.174C287.54 754.174 284.254 751.077 284.254 747.257C284.254 743.438 287.54 740.341 291.593 740.341C295.646 740.341 298.932 743.438 298.932 747.257C298.932 751.065 295.646 754.174 291.593 754.174Z" fill="#0CB368" stroke="#0CB368" stroke-width="2" stroke-miterlimit="10" stroke-linecap="round" stroke-linejoin="round"/>
<path d="M286.53 752.257L281.34 757.136" stroke="#0CB368" stroke-width="2" stroke-miterlimit="10" stroke-linecap="round" stroke-linejoin="round"/>
<path d="M277.111 261.355L269.389 268.632" stroke="#0CB368" stroke-width="2" stroke-miterlimit="10" stroke-linecap="round" stroke-linejoin="round"/>
<path d="M277.111 268.632L269.389 261.355" stroke="#0CB368" stroke-width="2" stroke-miterlimit="10" stroke-linecap="round" stroke-linejoin="round"/>
<path d="M133.331 683.38L125.609 690.656" stroke="#0CB368" stroke-width="2" stroke-miterlimit="10" stroke-linecap="round" stroke-linejoin="round"/>
<path d="M133.331 690.656L125.609 683.38" stroke="#0CB368" stroke-width="2" stroke-miterlimit="10" stroke-linecap="round" stroke-linejoin="round"/>
<path d="M41.5135 267.328L30.5945 267.328" stroke="#0CB368" stroke-width="2" stroke-miterlimit="10" stroke-linecap="round" stroke-linejoin="round"/>
<path d="M36.0552 272.486L36.0552 262.184" stroke="#0CB368" stroke-width="2" stroke-miterlimit="10" stroke-linecap="round" stroke-linejoin="round"/>
<path d="M221.733 128.402C218.076 128.402 215.097 125.606 215.097 122.148C215.097 118.702 218.063 115.895 221.733 115.895C225.39 115.895 228.369 118.69 228.369 122.148C228.356 125.606 225.39 128.402 221.733 128.402Z" fill="#0CB368" stroke="#0CB368" stroke-width="2" stroke-miterlimit="10" stroke-linecap="round" stroke-linejoin="round"/>
<path d="M393.551 496.413C389.894 496.413 386.915 493.618 386.915 490.159C386.915 486.713 389.881 483.906 393.551 483.906C397.208 483.906 400.187 486.701 400.187 490.159C400.174 493.618 397.208 496.413 393.551 496.413Z" fill="#0CB368" stroke="#0CB368" stroke-width="2" stroke-miterlimit="10" stroke-linecap="round" stroke-linejoin="round"/>
<path d="M44.8174 588.153C41.1606 588.153 38.1815 585.357 38.1815 581.899C38.1815 578.453 41.1478 575.646 44.8174 575.646C48.4741 575.646 51.4532 578.441 51.4532 581.899C51.4405 585.357 48.4741 588.153 44.8174 588.153Z" fill="#0CB368" stroke="#0CB368" stroke-width="2" stroke-miterlimit="10" stroke-linecap="round" stroke-linejoin="round"/>
<path d="M132.589 64.7196C131.509 64.7196 130.685 63.9019 130.685 62.9548C130.685 62.0076 131.509 61.1899 132.589 61.1899C133.668 61.1899 134.492 62.0076 134.492 62.9548C134.492 63.9019 133.668 64.7196 132.589 64.7196Z" fill="#0CB368" stroke="#0CB368"/>
<path d="M132.589 80.5401C131.509 80.5401 130.686 79.7224 130.686 78.7752C130.686 77.8281 131.509 77.0104 132.589 77.0104C133.668 77.0104 134.492 77.8281 134.492 78.7752C134.492 79.7224 133.668 80.5401 132.589 80.5401Z" fill="#0CB368" stroke="#0CB368"/>
<path d="M132.589 96.3463C131.509 96.3463 130.686 95.5286 130.686 94.5815C130.686 93.6343 131.509 92.8166 132.589 92.8166C133.668 92.8166 134.492 93.6343 134.492 94.5815C134.492 95.5286 133.668 96.3463 132.589 96.3463Z" fill="#0CB368" stroke="#0CB368"/>
<path d="M132.589 112.166C131.509 112.166 130.686 111.349 130.686 110.402C130.686 109.454 131.509 108.637 132.589 108.637C133.668 108.637 134.492 109.454 134.492 110.402C134.492 111.349 133.668 112.166 132.589 112.166Z" fill="#0CB368" stroke="#0CB368"/>
<path d="M132.589 127.974C131.509 127.974 130.686 127.156 130.686 126.209C130.686 125.262 131.509 124.444 132.589 124.444C133.668 124.444 134.492 125.262 134.492 126.209C134.492 127.156 133.668 127.974 132.589 127.974Z" fill="#0CB368" stroke="#0CB368"/>
<path d="M132.589 143.793C131.509 143.793 130.686 142.976 130.686 142.028C130.686 141.081 131.509 140.264 132.589 140.264C133.668 140.264 134.492 141.081 134.492 142.028C134.492 142.976 133.668 143.793 132.589 143.793Z" fill="#0CB368" stroke="#0CB368"/>
<path d="M115.814 64.7195C114.734 64.7195 113.91 63.9018 113.91 62.9546C113.91 62.0074 114.734 61.1897 115.814 61.1897C116.893 61.1897 117.717 62.0074 117.717 62.9546C117.717 63.9018 116.893 64.7195 115.814 64.7195Z" fill="#0CB368" stroke="#0CB368"/>
<path d="M115.814 80.54C114.734 80.54 113.91 79.7223 113.91 78.7751C113.91 77.8279 114.734 77.0103 115.814 77.0103C116.893 77.0103 117.717 77.828 117.717 78.7751C117.717 79.7223 116.893 80.54 115.814 80.54Z" fill="#0CB368" stroke="#0CB368"/>
<path d="M115.814 96.3467C114.734 96.3467 113.91 95.529 113.91 94.5818C113.91 93.6347 114.734 92.817 115.814 92.817C116.893 92.817 117.717 93.6347 117.717 94.5818C117.717 95.529 116.893 96.3467 115.814 96.3467Z" fill="#0CB368" stroke="#0CB368"/>
<path d="M115.814 112.167C114.734 112.167 113.91 111.349 113.91 110.402C113.91 109.455 114.734 108.637 115.814 108.637C116.893 108.637 117.717 109.455 117.717 110.402C117.717 111.349 116.893 112.167 115.814 112.167Z" fill="#0CB368" stroke="#0CB368"/>
<path d="M115.814 127.974C114.734 127.974 113.91 127.156 113.91 126.209C113.91 125.262 114.734 124.444 115.814 124.444C116.893 124.444 117.717 125.262 117.717 126.209C117.717 127.156 116.893 127.974 115.814 127.974Z" fill="#0CB368" stroke="#0CB368"/>
<path d="M115.814 143.793C114.734 143.793 113.91 142.976 113.91 142.028C113.91 141.081 114.734 140.264 115.814 140.264C116.893 140.264 117.717 141.081 117.717 142.028C117.717 142.976 116.893 143.793 115.814 143.793Z" fill="#0CB368" stroke="#0CB368"/>
<path d="M99.0258 64.7195C97.9463 64.7195 97.1225 63.9018 97.1225 62.9546C97.1225 62.0074 97.9463 61.1897 99.0259 61.1897C100.105 61.1897 100.929 62.0074 100.929 62.9546C100.929 63.9018 100.105 64.7195 99.0258 64.7195Z" fill="#0CB368" stroke="#0CB368"/>
<path d="M99.0259 80.5401C97.9463 80.5401 97.1225 79.7224 97.1225 78.7752C97.1225 77.828 97.9463 77.0103 99.0259 77.0103C100.105 77.0103 100.929 77.828 100.929 78.7752C100.929 79.7224 100.105 80.5401 99.0259 80.5401Z" fill="#0CB368" stroke="#0CB368"/>
<path d="M99.0259 96.3468C97.9464 96.3468 97.1226 95.5291 97.1226 94.5819C97.1226 93.6347 97.9464 92.817 99.0259 92.817C100.105 92.817 100.929 93.6347 100.929 94.5819C100.929 95.5291 100.105 96.3468 99.0259 96.3468Z" fill="#0CB368" stroke="#0CB368"/>
<path d="M99.0259 112.167C97.9464 112.167 97.1226 111.349 97.1226 110.402C97.1226 109.455 97.9464 108.637 99.0259 108.637C100.105 108.637 100.929 109.455 100.929 110.402C100.929 111.349 100.105 112.167 99.0259 112.167Z" fill="#0CB368" stroke="#0CB368"/>
<path d="M99.0259 127.974C97.9463 127.974 97.1225 127.156 97.1225 126.209C97.1225 125.262 97.9463 124.444 99.0259 124.444C100.105 124.444 100.929 125.262 100.929 126.209C100.929 127.156 100.105 127.974 99.0259 127.974Z" fill="#0CB368" stroke="#0CB368"/>
<path d="M99.026 143.793C97.9465 143.793 97.1227 142.976 97.1227 142.029C97.1227 141.081 97.9465 140.264 99.026 140.264C100.106 140.264 100.929 141.081 100.929 142.029C100.929 142.976 100.106 143.793 99.026 143.793Z" fill="#0CB368" stroke="#0CB368"/>
<path d="M82.2509 64.7194C81.1714 64.7194 80.3476 63.9017 80.3476 62.9546C80.3476 62.0074 81.1714 61.1897 82.251 61.1897C83.3305 61.1897 84.1543 62.0074 84.1543 62.9546C84.1543 63.9017 83.3305 64.7194 82.2509 64.7194Z" fill="#0CB368" stroke="#0CB368"/>
<path d="M82.251 80.5401C81.1714 80.5401 80.3477 79.7224 80.3477 78.7752C80.3477 77.828 81.1714 77.0103 82.251 77.0103C83.3305 77.0103 84.1543 77.828 84.1543 78.7752C84.1543 79.7224 83.3305 80.5401 82.251 80.5401Z" fill="#0CB368" stroke="#0CB368"/>
<path d="M82.251 96.3468C81.1714 96.3468 80.3476 95.5291 80.3476 94.5819C80.3476 93.6347 81.1714 92.817 82.251 92.817C83.3305 92.817 84.1543 93.6347 84.1543 94.5819C84.1543 95.5291 83.3305 96.3468 82.251 96.3468Z" fill="#0CB368" stroke="#0CB368"/>
<path d="M82.251 112.167C81.1714 112.167 80.3476 111.349 80.3476 110.402C80.3476 109.455 81.1714 108.637 82.251 108.637C83.3305 108.637 84.1543 109.455 84.1543 110.402C84.1543 111.349 83.3305 112.167 82.251 112.167Z" fill="#0CB368" stroke="#0CB368"/>
<path d="M82.251 127.974C81.1714 127.974 80.3476 127.156 80.3476 126.209C80.3476 125.262 81.1714 124.444 82.251 124.444C83.3305 124.444 84.1543 125.262 84.1543 126.209C84.1543 127.156 83.3305 127.974 82.251 127.974Z" fill="#0CB368" stroke="#0CB368"/>
<path d="M82.251 143.793C81.1714 143.793 80.3477 142.976 80.3477 142.028C80.3477 141.081 81.1714 140.264 82.251 140.264C83.3305 140.264 84.1543 141.081 84.1543 142.028C84.1543 142.976 83.3305 143.793 82.251 143.793Z" fill="#0CB368" stroke="#0CB368"/>
<path d="M300.012 586.532C298.933 586.532 298.109 585.714 298.109 584.767C298.109 583.82 298.933 583.002 300.012 583.002C301.092 583.002 301.916 583.82 301.916 584.767C301.916 585.714 301.092 586.532 300.012 586.532Z" fill="#0CB368" stroke="#0CB368"/>
<path d="M300.013 602.341C298.933 602.341 298.11 601.523 298.11 600.576C298.11 599.628 298.933 598.811 300.013 598.811C301.092 598.811 301.916 599.628 301.916 600.576C301.916 601.523 301.092 602.341 300.013 602.341Z" fill="#0CB368" stroke="#0CB368"/>
<path d="M300.013 618.158C298.933 618.158 298.11 617.34 298.11 616.393C298.11 615.446 298.933 614.628 300.013 614.628C301.092 614.628 301.916 615.446 301.916 616.393C301.916 617.34 301.092 618.158 300.013 618.158Z" fill="#0CB368" stroke="#0CB368"/>
<path d="M283.225 586.531C282.145 586.531 281.322 585.714 281.322 584.767C281.322 583.82 282.145 583.002 283.225 583.002C284.305 583.002 285.128 583.82 285.128 584.767C285.128 585.714 284.305 586.531 283.225 586.531Z" fill="#0CB368" stroke="#0CB368"/>
<path d="M283.225 602.341C282.145 602.341 281.322 601.523 281.322 600.576C281.322 599.628 282.145 598.811 283.225 598.811C284.305 598.811 285.128 599.628 285.128 600.576C285.128 601.523 284.305 602.341 283.225 602.341Z" fill="#0CB368" stroke="#0CB368"/>
<path d="M283.225 618.158C282.145 618.158 281.322 617.34 281.322 616.393C281.322 615.446 282.145 614.628 283.225 614.628C284.305 614.628 285.128 615.446 285.128 616.393C285.128 617.34 284.305 618.158 283.225 618.158Z" fill="#0CB368" stroke="#0CB368"/>
<path d="M373.415 252.856C372.335 252.856 371.512 252.038 371.512 251.091C371.512 250.144 372.335 249.326 373.415 249.326C374.494 249.326 375.318 250.144 375.318 251.091C375.318 252.038 374.494 252.856 373.415 252.856Z" fill="#0CB368" stroke="#0CB368"/>
<path d="M373.415 268.663C372.335 268.663 371.512 267.845 371.512 266.898C371.512 265.951 372.335 265.133 373.415 265.133C374.495 265.133 375.318 265.951 375.318 266.898C375.318 267.845 374.495 268.663 373.415 268.663Z" fill="#0CB368" stroke="#0CB368"/>
<path d="M373.415 284.483C372.335 284.483 371.512 283.665 371.512 282.718C371.512 281.771 372.335 280.953 373.415 280.953C374.495 280.953 375.318 281.771 375.318 282.718C375.318 283.665 374.495 284.483 373.415 284.483Z" fill="#0CB368" stroke="#0CB368"/>
<path d="M356.627 252.856C355.548 252.856 354.724 252.038 354.724 251.091C354.724 250.144 355.548 249.326 356.627 249.326C357.707 249.326 358.531 250.144 358.531 251.091C358.531 252.038 357.707 252.856 356.627 252.856Z" fill="#0CB368" stroke="#0CB368"/>
<path d="M356.627 268.663C355.548 268.663 354.724 267.846 354.724 266.898C354.724 265.951 355.548 265.134 356.627 265.134C357.707 265.134 358.531 265.951 358.531 266.898C358.531 267.846 357.707 268.663 356.627 268.663Z" fill="#0CB368" stroke="#0CB368"/>
<path d="M356.627 284.483C355.548 284.483 354.724 283.666 354.724 282.718C354.724 281.771 355.548 280.953 356.627 280.953C357.707 280.953 358.531 281.771 358.531 282.718C358.531 283.666 357.707 284.483 356.627 284.483Z" fill="#0CB368" stroke="#0CB368"/>
<path d="M132.589 818.81C131.509 818.81 130.686 817.992 130.686 817.045C130.686 816.098 131.509 815.28 132.589 815.28C133.669 815.28 134.492 816.098 134.492 817.045C134.492 817.992 133.669 818.81 132.589 818.81Z" fill="#0CB368" stroke="#0CB368"/>
<path d="M115.801 818.81C114.722 818.81 113.898 817.993 113.898 817.045C113.898 816.098 114.722 815.28 115.801 815.28C116.881 815.28 117.704 816.098 117.704 817.045C117.704 817.993 116.881 818.81 115.801 818.81Z" fill="#0CB368" stroke="#0CB368"/>
<path d="M99.0259 818.81C97.9463 818.81 97.1225 817.993 97.1225 817.045C97.1225 816.098 97.9463 815.28 99.0259 815.28C100.105 815.28 100.929 816.098 100.929 817.045C100.929 817.993 100.105 818.81 99.0259 818.81Z" fill="#0CB368" stroke="#0CB368"/>
<path d="M82.238 818.81C81.1585 818.81 80.3347 817.993 80.3347 817.045C80.3347 816.098 81.1585 815.28 82.238 815.28C83.3176 815.28 84.1414 816.098 84.1414 817.045C84.1414 817.993 83.3176 818.81 82.238 818.81Z" fill="#0CB368" stroke="#0CB368"/>
<path d="M65.4632 818.81C64.3837 818.81 63.5599 817.993 63.5599 817.045C63.5599 816.098 64.3837 815.28 65.4632 815.28C66.5428 815.28 67.3666 816.098 67.3666 817.045C67.3666 817.993 66.5428 818.81 65.4632 818.81Z" fill="#0CB368" stroke="#0CB368"/>
<path d="M48.6754 818.81C47.5959 818.81 46.7721 817.993 46.7721 817.045C46.7721 816.098 47.5959 815.28 48.6754 815.28C49.7549 815.28 50.5787 816.098 50.5787 817.045C50.5787 817.993 49.7549 818.81 48.6754 818.81Z" fill="#0CB368" stroke="#0CB368"/>
<path d="M31.9003 818.81C30.8207 818.81 29.9969 817.993 29.9969 817.045C29.9969 816.098 30.8207 815.28 31.9003 815.28C32.9798 815.28 33.8036 816.098 33.8036 817.045C33.8036 817.993 32.9798 818.81 31.9003 818.81Z" fill="#0CB368" stroke="#0CB368"/>
<path d="M132.589 802.991C131.509 802.991 130.686 802.173 130.686 801.226C130.686 800.279 131.509 799.461 132.589 799.461C133.669 799.461 134.492 800.279 134.492 801.226C134.492 802.173 133.669 802.991 132.589 802.991Z" fill="#0CB368" stroke="#0CB368"/>
<path d="M115.801 802.991C114.722 802.991 113.898 802.173 113.898 801.226C113.898 800.279 114.722 799.461 115.801 799.461C116.881 799.461 117.704 800.279 117.704 801.226C117.704 802.173 116.881 802.991 115.801 802.991Z" fill="#0CB368" stroke="#0CB368"/>
<path d="M99.026 802.991C97.9464 802.991 97.1227 802.173 97.1227 801.226C97.1227 800.279 97.9465 799.461 99.026 799.461C100.106 799.461 100.929 800.279 100.929 801.226C100.929 802.173 100.106 802.991 99.026 802.991Z" fill="#0CB368" stroke="#0CB368"/>
<path d="M82.238 802.991C81.1585 802.991 80.3347 802.173 80.3347 801.226C80.3347 800.279 81.1585 799.461 82.2381 799.461C83.3176 799.461 84.1414 800.279 84.1414 801.226C84.1414 802.173 83.3176 802.991 82.238 802.991Z" fill="#0CB368" stroke="#0CB368"/>
<path d="M65.4632 802.991C64.3837 802.991 63.5599 802.173 63.5599 801.226C63.5599 800.279 64.3837 799.461 65.4632 799.461C66.5428 799.461 67.3666 800.279 67.3666 801.226C67.3666 802.173 66.5428 802.991 65.4632 802.991Z" fill="#0CB368" stroke="#0CB368"/>
<path d="M48.6754 802.991C47.5959 802.991 46.7721 802.173 46.7721 801.226C46.7721 800.279 47.5959 799.461 48.6754 799.461C49.755 799.461 50.5787 800.279 50.5787 801.226C50.5787 802.173 49.7549 802.991 48.6754 802.991Z" fill="#0CB368" stroke="#0CB368"/>
<path d="M31.9003 802.991C30.8207 802.991 29.9969 802.173 29.9969 801.226C29.9969 800.279 30.8207 799.461 31.9003 799.461C32.9798 799.461 33.8036 800.279 33.8036 801.226C33.8036 802.173 32.9798 802.991 31.9003 802.991Z" fill="#0CB368" stroke="#0CB368"/>
<path d="M132.589 787.183C131.509 787.183 130.686 786.365 130.686 785.418C130.686 784.471 131.509 783.653 132.589 783.653C133.669 783.653 134.492 784.471 134.492 785.418C134.492 786.365 133.669 787.183 132.589 787.183Z" fill="#0CB368" stroke="#0CB368"/>
<path d="M115.801 787.183C114.722 787.183 113.898 786.365 113.898 785.418C113.898 784.471 114.722 783.653 115.801 783.653C116.881 783.653 117.704 784.471 117.704 785.418C117.704 786.365 116.881 787.183 115.801 787.183Z" fill="#0CB368" stroke="#0CB368"/>
<path d="M99.026 787.183C97.9464 787.183 97.1227 786.365 97.1227 785.418C97.1227 784.471 97.9465 783.653 99.026 783.653C100.106 783.653 100.929 784.471 100.929 785.418C100.929 786.365 100.106 787.183 99.026 787.183Z" fill="#0CB368" stroke="#0CB368"/>
<path d="M82.238 787.183C81.1585 787.183 80.3347 786.365 80.3347 785.418C80.3347 784.471 81.1585 783.653 82.238 783.653C83.3176 783.653 84.1414 784.471 84.1414 785.418C84.1414 786.365 83.3176 787.183 82.238 787.183Z" fill="#0CB368" stroke="#0CB368"/>
<path d="M65.4631 787.183C64.3836 787.183 63.5598 786.365 63.5598 785.418C63.5598 784.471 64.3836 783.653 65.4631 783.653C66.5427 783.653 67.3665 784.471 67.3665 785.418C67.3665 786.365 66.5427 787.183 65.4631 787.183Z" fill="#0CB368" stroke="#0CB368"/>
<path d="M48.6754 787.183C47.5959 787.183 46.7721 786.365 46.7721 785.418C46.7721 784.471 47.5959 783.653 48.6754 783.653C49.755 783.653 50.5787 784.471 50.5787 785.418C50.5787 786.365 49.7549 787.183 48.6754 787.183Z" fill="#0CB368" stroke="#0CB368"/>
<path d="M31.9002 787.183C30.8207 787.183 29.9969 786.365 29.9969 785.418C29.9969 784.471 30.8207 783.653 31.9003 783.653C32.9798 783.653 33.8036 784.471 33.8036 785.418C33.8036 786.365 32.9798 787.183 31.9002 787.183Z" fill="#0CB368" stroke="#0CB368"/>
<path d="M132.587 771.364C131.508 771.364 130.684 770.546 130.684 769.599C130.684 768.652 131.508 767.834 132.587 767.834C133.667 767.834 134.491 768.652 134.491 769.599C134.491 770.546 133.667 771.364 132.587 771.364Z" fill="#0CB368" stroke="#0CB368"/>
<path d="M115.801 771.364C114.721 771.364 113.898 770.546 113.898 769.599C113.898 768.651 114.722 767.834 115.801 767.834C116.881 767.834 117.704 768.651 117.704 769.599C117.704 770.546 116.88 771.364 115.801 771.364Z" fill="#0CB368" stroke="#0CB368"/>
<path d="M99.0258 771.364C97.9462 771.364 97.1225 770.546 97.1225 769.599C97.1225 768.651 97.9463 767.834 99.0259 767.834C100.105 767.834 100.929 768.651 100.929 769.599C100.929 770.546 100.105 771.364 99.0258 771.364Z" fill="#0CB368" stroke="#0CB368"/>
<path d="M82.2381 771.364C81.1586 771.364 80.3348 770.546 80.3348 769.599C80.3348 768.651 81.1586 767.834 82.2382 767.834C83.3177 767.834 84.1415 768.651 84.1414 769.599C84.1414 770.546 83.3176 771.364 82.2381 771.364Z" fill="#0CB368" stroke="#0CB368"/>
<path d="M65.4632 771.364C64.3836 771.364 63.5599 770.546 63.5599 769.599C63.5599 768.651 64.3837 767.834 65.4632 767.834C66.5428 767.834 67.3666 768.651 67.3665 769.599C67.3665 770.546 66.5427 771.364 65.4632 771.364Z" fill="#0CB368" stroke="#0CB368"/>
<path d="M48.6753 771.364C47.5958 771.364 46.772 770.546 46.772 769.599C46.772 768.651 47.5959 767.834 48.6754 767.834C49.7549 767.834 50.5787 768.651 50.5787 769.599C50.5787 770.546 49.7549 771.364 48.6753 771.364Z" fill="#0CB368" stroke="#0CB368"/>
<path d="M31.9002 771.364C30.8206 771.364 29.9969 770.546 29.9969 769.599C29.9969 768.651 30.8207 767.834 31.9002 767.834C32.9798 767.834 33.8036 768.651 33.8035 769.599C33.8035 770.546 32.9797 771.364 31.9002 771.364Z" fill="#0CB368" stroke="#0CB368"/>
</svg>
